<?xml version="1.0" encoding="UTF-8"?>
<svg width="37px" height="30px" viewBox="0 0 37 30" version="1.1" xmlns="http://www.w3.org/2000/svg" xmlns:xlink="http://www.w3.org/1999/xlink">
    <!-- Generator: Sketch 41.2 (35397) - http://www.bohemiancoding.com/sketch -->
    <title>XMLID_47_@active</title>
    <desc>Created with Sketch.</desc>
    <defs></defs>
    <g id="Symbols" stroke="none" stroke-width="1" fill="none" fill-rule="evenodd">
        <g id="Artboard" transform="translate(-748.000000, -102.000000)" stroke="#FA4646">
            <g id="XMLID_47_" transform="translate(748.399232, 102.905308)">
                <g id="Group-7" transform="translate(0.000000, 0.000000)">
                    <path d="M27,4 L35.6305182,4" id="XMLID_49_"></path>
                    <path d="M31,0 L31,8.63414634" id="XMLID_50_"></path>
                    <path d="M10.7389635,28.6450502 L10.7389635,25.9532281" id="XMLID_46_"></path>
                    <path d="M23.7389635,28.6450502 L23.7389635,25.9532281" id="XMLID_45_"></path>
                    <path d="M0.956142035,13.8146341 L0.956142035,14.3225251 C0.956142035,22.0932568 8.46976967,26.5626973 17.1510557,26.5626973 C25.8323417,26.5626973 33.3459693,22.0932568 33.3459693,14.3225251 L33.3459693,13.8146341 L0.956142035,13.8146341 Z" id="XMLID_48_"></path>
                    <path d="M4.05297505,13.8146341 L4.05297505,13.5098996 C4.05297505,9.1420373 9.89126679,6.09469154 17.1510557,6.09469154 C24.4108445,6.09469154 30.2491363,9.1420373 30.2491363,13.5098996 L30.2491363,13.8146341 L4.05297505,13.8146341 Z" id="XMLID_42_"></path>
                </g>
            </g>
        </g>
    </g>
</svg>