<?xml version="1.0" encoding="UTF-8"?>
<svg width="34px" height="30px" viewBox="0 0 34 30" version="1.1" xmlns="http://www.w3.org/2000/svg" xmlns:xlink="http://www.w3.org/1999/xlink">
    <!-- Generator: Sketch 41.2 (35397) - http://www.bohemiancoding.com/sketch -->
    <title>饭友</title>
    <desc>Created with Sketch.</desc>
    <defs></defs>
    <g id="Symbols" stroke="none" stroke-width="1" fill="none" fill-rule="evenodd">
        <g id="UX/Element/Icons/饭友" transform="translate(0.000000, 1.000000)" stroke="#000000">
            <g id="饭友" transform="translate(0.624760, 0.433286)">
                <ellipse id="XMLID_31_" cx="22.7439539" cy="9.34519369" rx="9.29049904" ry="9.29440459"></ellipse>
                <path d="M32.3390595,27.3245337 C32.3390595,27.3245337 32.4913628,20.1632712 27.8714971,17.2682927 C26.3992322,18.2332855 24.6223608,18.8427547 22.7439539,18.8427547 C20.9163148,18.8427547 19.1902111,18.2840746 17.768714,17.3698709 C13.0980806,20.3664275 13.0473129,27.4261119 13.0473129,27.4261119" id="XMLID_32_"></path>
                <ellipse id="XMLID_28_" cx="6.49827255" cy="15.4398852" rx="6.24443378" ry="6.24705882"></ellipse>
                <path d="M13.0473129,27.5784792 C13.0473129,27.5784792 13.1488484,22.7535151 10.0012476,20.7727403 C8.98589251,21.4329986 7.81823417,21.8393113 6.54904031,21.8393113 C5.3306142,21.8393113 4.16295585,21.4837877 3.19836852,20.8743185 C0.0507677543,22.9058824 -7.38964445e-13,27.6800574 -7.38964445e-13,27.6800574" id="XMLID_27_"></path>
            </g>
        </g>
    </g>
</svg>