<?xml version="1.0" encoding="UTF-8"?>
<svg width="34px" height="29px" viewBox="0 0 34 29" version="1.1" xmlns="http://www.w3.org/2000/svg" xmlns:xlink="http://www.w3.org/1999/xlink">
    <!-- Generator: Sketch 41.2 (35397) - http://www.bohemiancoding.com/sketch -->
    <title>Group 5@active</title>
    <desc>Created with Sketch.</desc>
    <defs></defs>
    <g id="Symbols" stroke="none" stroke-width="1" fill="none" fill-rule="evenodd">
        <g id="Artboard" transform="translate(-518.000000, -98.000000)" stroke="#FA4646">
            <g id="Group-5" transform="translate(518.000000, 99.000000)">
                <ellipse id="XMLID_31_" cx="23.7132438" cy="9.57618364" rx="9.29049904" ry="9.29440459"></ellipse>
                <path d="M33.3083493,27.5555237 C33.3083493,27.5555237 33.4606526,20.3942611 28.8407869,17.4992826 C27.3685221,18.4642755 25.5916507,19.0737446 23.7132438,19.0737446 C21.8856046,19.0737446 20.159501,18.5150646 18.7380038,17.6008608 C14.0673704,20.5974175 14.0166027,27.6571019 14.0166027,27.6571019" id="XMLID_32_"></path>
                <ellipse id="XMLID_28_" cx="7.46756238" cy="15.6708752" rx="6.24443378" ry="6.24705882"></ellipse>
                <path d="M14.0166027,27.8094692 C14.0166027,27.8094692 14.1181382,22.984505 10.9705374,21.0037303 C9.95518234,21.6639885 8.78752399,22.0703013 7.51833013,22.0703013 C6.29990403,22.0703013 5.13224568,21.7147776 4.16765835,21.1053085 C1.02005758,23.1368723 0.969289827,27.9110473 0.969289827,27.9110473" id="XMLID_27_"></path>
            </g>
        </g>
    </g>
</svg>